<svg width="34" height="36" viewBox="0 0 34 36" fill="none" xmlns="http://www.w3.org/2000/svg">
<path d="M23.4463 4.14339L24.4195 2.52489C24.6403 2.13237 25.1269 1.99887 25.5235 2.21737C25.9201 2.43587 26.055 2.9174 25.8342 3.30987L24.8611 4.92837C24.7302 5.19141 24.4195 5.32089 24.1536 5.32089C24.0228 5.32089 23.8878 5.27635 23.757 5.23187C23.3563 5.01739 23.2255 4.53992 23.4463 4.14339ZM9.13888 4.93244C9.26973 5.19548 9.58049 5.32496 9.8463 5.32496C9.97715 5.32496 10.1121 5.28042 10.243 5.23594C10.6396 5.01744 10.7745 4.53591 10.5537 4.14345L9.58055 2.52494C9.35974 2.13242 8.87313 1.99893 8.47653 2.21743C8.07992 2.43593 7.94496 2.91746 8.16576 3.30992L9.13888 4.93244ZM16.9979 3.44743C17.4396 3.44743 17.7912 3.09945 17.7912 2.66245V0.784979C17.7912 0.347981 17.4396 0 16.9979 0C16.5563 0 16.2047 0.347981 16.2047 0.784979V2.66245C16.1597 3.09543 16.5113 3.44743 16.9979 3.44743ZM2.69055 15.9869H0.793263C0.351654 15.9869 0 16.3349 0 16.7719C0 17.2089 0.351654 17.5569 0.793263 17.5569H2.69055C3.13216 17.5569 3.48381 17.2089 3.48381 16.7719C3.48381 16.3349 3.13216 15.9869 2.69055 15.9869ZM33.2067 15.9869H31.3095C30.8678 15.9869 30.5162 16.3349 30.5162 16.7719C30.5162 17.2089 30.8678 17.5569 31.3095 17.5569H33.2067C33.6483 17.5569 34 17.2089 34 16.7719C34 16.3349 33.6483 15.9869 33.2067 15.9869ZM31.747 8.38394C31.5261 7.99142 31.0395 7.85793 30.6429 8.07642L29.0073 9.03944C28.6107 9.25794 28.4758 9.73947 28.6966 10.1319C28.8274 10.395 29.1382 10.5244 29.404 10.5244C29.5348 10.5244 29.6698 10.4799 29.8006 10.4354L31.4362 9.47242C31.8369 9.25793 31.9678 8.7764 31.747 8.38394ZM27.4208 16.6869C27.4208 18.4795 26.9342 20.2275 26.051 21.8015C26.006 21.931 25.961 22.02 25.8751 22.109L25.7852 22.2385C25.4335 22.7645 25.0778 23.2865 24.6361 23.7235C23.0905 25.864 22.2973 27.701 22.3381 28.8785V28.923C22.3381 29.0121 22.3832 29.1415 22.3832 29.271V33.03C22.3832 34.689 21.0133 36 19.3818 36H14.4833C12.8068 36 11.4819 34.6445 11.4819 33.03V29.271C11.4819 29.182 11.4819 29.1415 11.4819 29.0525C11.4819 29.008 11.4819 28.923 11.4819 28.8786C11.5269 27.7415 10.7296 25.9491 9.2739 23.853C8.78728 23.327 8.30073 22.7605 7.94907 22.105C7.90412 22.016 7.85912 21.9756 7.81822 21.8865C6.89 20.3125 6.40344 18.52 6.40344 16.7315C6.40344 11.006 11.1303 6.33256 16.9122 6.33256C22.6939 6.28797 27.4208 10.9614 27.4208 16.6869ZM20.7516 29.7079H13.1134V31.1929H20.7516V29.7079ZM20.7516 33.1189V32.8114H13.1134V33.1189C13.2034 33.819 13.7758 34.3409 14.4833 34.3409H19.386C20.0892 34.3409 20.6658 33.819 20.7516 33.1189ZM25.7852 16.6869C25.7852 11.8354 21.8107 7.90241 16.9079 7.90241C12.0052 7.90241 8.03075 11.8354 8.03075 16.6869C8.03075 18.261 8.47236 19.7905 9.26562 21.146C9.26562 21.146 9.26562 21.146 9.26562 21.1905C9.61727 21.757 10.018 22.283 10.4596 22.7645C10.5046 22.809 10.5046 22.809 10.5496 22.8535C12.0052 24.909 12.8476 26.657 13.0684 28.0975H20.7966C21.0624 26.305 22.2973 24.2536 23.4013 22.724C23.4013 22.6795 23.4463 22.6795 23.4913 22.635C23.8879 22.2425 24.2437 21.761 24.5054 21.2795C24.5054 21.235 24.5504 21.235 24.5504 21.1905C24.5504 21.1459 24.5954 21.146 24.5954 21.1015C25.3886 19.7905 25.7852 18.261 25.7852 16.6869ZM4.98855 9.03944L3.35296 8.07642C2.9563 7.85793 2.46974 7.98741 2.24894 8.38394C2.02813 8.77646 2.15898 9.25793 2.5597 9.47643L4.19528 10.4394C4.32613 10.5285 4.46109 10.5285 4.59194 10.5285C4.85775 10.5285 5.1644 10.399 5.29936 10.1359C5.51606 9.73947 5.38521 9.25794 4.98855 9.03944Z" fill="#F79595"/>
</svg>
