<svg width="24" height="36" viewBox="0 0 24 36" fill="none" xmlns="http://www.w3.org/2000/svg">
<path d="M23.3094 15.8923H20.8912C20.5099 15.8923 20.2008 16.2073 20.2008 16.5954C20.2008 16.9838 20.5099 17.2985 20.8912 17.2985H21.41V21.4722H20.6935C20.3815 20.1495 19.2114 19.1635 17.8182 19.1635H12.6904V17.2985H17.0753C17.757 17.2985 18.4288 16.9969 18.8721 16.4916C19.2564 16.0535 19.4344 15.5078 19.3735 14.9546L17.9628 2.18683C17.8228 0.919556 16.8563 0 15.6646 0H8.33512C7.14342 0 6.17691 0.91983 6.03695 2.18683L5.64052 5.77579C5.59791 6.16168 5.87056 6.50967 6.24945 6.55307C6.62807 6.59702 6.97002 6.31879 7.01263 5.93317L7.40905 2.34421C7.45894 1.8924 7.77015 1.40625 8.33512 1.40625H15.6649C16.2299 1.40625 16.5408 1.8924 16.5907 2.34421L18.0013 15.1117C18.0227 15.3042 17.9269 15.4586 17.8428 15.5544C17.6599 15.7629 17.3657 15.8923 17.0753 15.8923H6.92445C6.63401 15.8923 6.34006 15.7629 6.15695 15.5544C6.07308 15.4586 5.97735 15.304 5.99838 15.1117L6.39507 11.5227C6.43768 11.1368 6.16504 10.7888 5.78615 10.7455C5.40725 10.7018 5.06558 10.9797 5.02297 11.3656L4.62654 14.9546C4.56533 15.5078 4.74331 16.0538 5.1276 16.4916C5.57122 16.9969 6.24298 17.2988 6.92472 17.2988H11.3096V19.1635H6.18149C4.78862 19.1635 3.6185 20.1495 3.30649 21.4722H2.58996V17.2988H3.10881C3.49013 17.2988 3.79918 16.984 3.79918 16.5957C3.79918 16.2073 3.49013 15.8925 3.10881 15.8925H0.690368C0.309048 15.8925 0 16.2073 0 16.5957C0 16.984 0.309048 17.2988 0.690368 17.2988H1.20922V22.1754C1.20922 22.5637 1.51827 22.8785 1.89959 22.8785H3.30649C3.61823 24.201 4.78862 25.1873 6.18149 25.1873H11.3096V27.3029C8.31219 27.4738 5.61706 28.7523 3.94427 30.8095C2.69837 30.9845 1.73536 32.0757 1.73536 33.3921C1.73536 34.8302 2.88417 36 4.29592 36C5.70794 36 6.85649 34.8302 6.85649 33.3921C6.85649 32.4176 6.32846 31.5665 5.54883 31.119C6.97083 29.7414 9.05946 28.8633 11.3096 28.7128V30.8812C10.232 31.1891 9.43944 32.1976 9.43944 33.3921C9.43944 34.83 10.588 36 12 36C13.4117 36 14.5606 34.83 14.5606 33.3921C14.5606 32.1976 13.7677 31.1891 12.6904 30.8812V28.7128C14.9403 28.863 17.0292 29.7411 18.4509 31.119C17.6713 31.5665 17.1432 32.4174 17.1432 33.3921C17.1432 34.83 18.2921 36 19.7038 36C21.1158 36 22.2646 34.83 22.2646 33.3921C22.2646 32.0757 21.3016 30.9845 20.0555 30.8092C18.3827 28.7523 15.6875 27.4738 12.6904 27.3027V25.1873H17.8182C19.2114 25.1873 20.3815 24.201 20.6935 22.8785H22.1004C22.4817 22.8785 22.7908 22.5637 22.7908 22.1754V17.2985H23.3096C23.691 17.2985 24 16.9838 24 16.5954C23.9997 16.2073 23.6907 15.8923 23.3094 15.8923ZM4.29592 34.5938C3.64547 34.5938 3.1161 34.0546 3.1161 33.3921C3.1161 32.7294 3.64547 32.1905 4.29592 32.1905C4.94665 32.1905 5.47575 32.7294 5.47575 33.3921C5.47575 34.0546 4.94665 34.5938 4.29592 34.5938ZM20.8836 33.3921C20.8836 34.0546 20.3545 34.5938 19.7038 34.5938C19.0534 34.5938 18.524 34.0546 18.524 33.3921C18.524 32.7296 19.0528 32.1908 19.7033 32.1905H19.7043H19.7052C20.3551 32.1913 20.8836 32.7299 20.8836 33.3921ZM13.1798 33.3921C13.1798 34.0546 12.6505 34.5938 12 34.5938C11.3493 34.5938 10.8199 34.0546 10.8199 33.3921C10.8199 32.7296 11.349 32.1908 11.9992 32.1905H12H12.0005C12.6507 32.1908 13.1798 32.7296 13.1798 33.3921ZM17.8182 23.781H6.18149C5.31206 23.781 4.60497 23.0609 4.60497 22.1754C4.60497 21.2899 5.31206 20.5697 6.18149 20.5697H17.8182C18.6877 20.5697 19.3948 21.2899 19.3948 22.1754C19.3948 23.0609 18.6877 23.781 17.8182 23.781Z" fill="#F79595"/>
<path d="M6.5 9C6.77539 9 7 8.77539 7 8.5C7 8.22461 6.77539 8 6.5 8C6.22461 8 6 8.22461 6 8.5C6 8.77539 6.22461 9 6.5 9Z" fill="#F79595"/>
</svg>
