<svg width="30" height="33" viewBox="0 0 30 33" fill="none" xmlns="http://www.w3.org/2000/svg">
<path d="M29.9699 15.2234C29.9699 14.219 29.5783 13.274 28.8674 12.5632C28.3059 12.0019 27.5985 11.6396 26.8312 11.5122C26.6511 5.13336 21.406 0 14.9843 0C8.5634 0 3.31857 5.13386 3.13868 11.5127C1.35972 11.8108 0 13.3614 0 15.2234C0 16.2286 0.39162 17.1736 1.10246 17.8844C1.23258 18.0148 1.37067 18.134 1.51548 18.2422L4.19611 31.8392C4.28468 32.2878 4.67805 32.6112 5.13535 32.6112H10.0403L10.043 32.6115L24.834 32.6112C25.2914 32.6112 25.6847 32.288 25.7733 31.8392L28.4544 18.2402C29.3735 17.5532 29.9699 16.4568 29.9699 15.2234ZM3.76269 13.3755H4.10554C4.36803 13.3755 4.61908 13.2676 4.79996 13.0772C4.98059 12.8866 5.07514 12.6304 5.06146 12.3681C5.05275 12.2032 5.04852 12.0293 5.04852 11.8514C5.04852 6.37216 9.50562 1.91456 14.9843 1.91456C20.4638 1.91456 24.9214 6.37216 24.9214 11.8514C24.9214 12.0293 24.9169 12.2032 24.9084 12.3681C24.8945 12.6304 24.9893 12.8866 25.1699 13.0772C25.3508 13.2676 25.6019 13.3755 25.8644 13.3755H26.2072C26.7003 13.3755 27.1644 13.5679 27.5137 13.9169C27.863 14.2663 28.0553 14.7303 28.0553 15.2234C28.0553 16.243 27.2263 17.0723 26.2072 17.0723H3.76269C3.26931 17.0723 2.80553 16.88 2.45621 16.5307C2.10689 16.1813 1.91456 15.7171 1.91456 15.2234C1.91456 14.2046 2.74358 13.3755 3.76269 13.3755ZM15.9422 30.6969V18.9869H20.5932L19.2078 30.6969H15.9422ZM10.8778 30.6969L9.2496 18.9869H14.0277V30.6969H10.8778ZM3.61365 18.9869H7.31663L8.94457 30.6969H5.92232L3.61365 18.9869ZM26.3557 18.9869L24.0471 30.6969H21.1358L22.5209 18.9869H26.3557Z" fill="#F79595"/>
<path d="M17.8279 6.65602L18.9174 7.53456C19.0946 7.67712 19.3068 7.74654 19.5176 7.74654C19.7972 7.74654 20.0744 7.62462 20.2635 7.39C20.5954 6.97848 20.5307 6.37587 20.1192 6.04396L19.0294 5.16568C18.6179 4.83377 18.015 4.89846 17.6834 5.30998C17.3517 5.72176 17.4164 6.32436 17.8279 6.65602Z" fill="#F79595"/>
<path d="M10.5081 8.04291C10.6101 8.04291 10.7136 8.02649 10.8156 7.9919L12.1412 7.54256C12.6418 7.37263 12.91 6.82923 12.7404 6.32864C12.5707 5.82779 12.0273 5.55958 11.5264 5.72926L10.2008 6.17861C9.7002 6.34854 9.43199 6.89193 9.60167 7.39253C9.73702 7.79137 10.1092 8.04291 10.5081 8.04291Z" fill="#F79595"/>
<path d="M14.4728 11.9721C14.643 12.0962 14.8403 12.1559 15.0361 12.1559C15.3314 12.1559 15.6228 12.0196 15.8101 11.7628L16.6351 10.632C16.9466 10.2048 16.8528 9.60592 16.4259 9.29441C15.9987 8.98291 15.3998 9.07671 15.0883 9.50366L14.2635 10.6345C13.9518 11.0617 14.0456 11.6603 14.4728 11.9721Z" fill="#F79595"/>
<path d="M20.1117 12.6973L20.5772 14.0175C20.7161 14.4106 21.0855 14.6564 21.4802 14.6564C21.5856 14.6564 21.6931 14.639 21.7984 14.6017C22.297 14.426 22.5587 13.8791 22.3828 13.3805L21.9173 12.0606C21.7414 11.562 21.1948 11.3003 20.6962 11.4762C20.1976 11.6521 19.9361 12.1987 20.1117 12.6973Z" fill="#F79595"/>
<path d="M7.96874 13.9732C8.13893 14.0973 8.33623 14.1573 8.53204 14.1573C8.82737 14.1573 9.11872 14.0209 9.30608 13.7639L10.1311 12.6331C10.4426 12.2061 10.3488 11.6073 9.92187 11.2958C9.49467 10.984 8.89579 11.0778 8.58429 11.505L7.7595 12.6358C7.44774 13.0628 7.54154 13.6616 7.96874 13.9732Z" fill="#F79595"/>
</svg>
