<svg width="40" height="39" viewBox="0 0 40 39" fill="none" xmlns="http://www.w3.org/2000/svg">
<ellipse cx="20" cy="19.5" rx="20" ry="19.5" fill="#F79595"/>
<path d="M29 13.4733C29 12.0133 27.6788 10.7251 26.1813 10.7251H14.8186C13.3212 10.7251 12 12.0133 12 13.4733V24.5519C12 26.0118 13.3212 27.3 14.8186 27.3H20.544V21.0308H18.4301V18.2826H20.544V17.1661C20.544 15.2768 21.9534 13.645 23.715 13.645H26.0052V16.3932H23.715C23.4508 16.3932 23.1865 16.6509 23.1865 17.1661V18.2826H26.0052V21.0308H23.1865V27.3H26.1813C27.6788 27.3 29 26.0118 29 24.5519V13.4733Z" fill="white"/>
</svg>
