<svg width="17" height="18" viewBox="0 0 17 18" fill="none" xmlns="http://www.w3.org/2000/svg">
<path d="M14.5808 0.700195H2.41923C1.04615 0.700195 0 1.72019 0 3.05894V14.9164C0 16.2551 1.04615 17.2751 2.41923 17.2751H14.5808C15.9538 17.2751 17 16.2551 17 14.9164V3.05894C17 1.72019 15.9538 0.700195 14.5808 0.700195ZM8.5 13.9601C11.3115 13.9601 13.6 11.7927 13.6 9.17891C13.6 8.73267 13.5346 8.22267 13.4038 7.84017H14.8423V14.5976C14.8423 14.9164 14.5808 15.2351 14.1885 15.2351H2.81154C2.48462 15.2351 2.15769 14.9801 2.15769 14.5976V7.77642H3.66154C3.53077 8.22267 3.46539 8.66892 3.46539 9.11516C3.4 11.7927 5.68846 13.9601 8.5 13.9601ZM8.5 12.0477C6.66923 12.0477 5.23077 10.6452 5.23077 8.92392C5.23077 7.20267 6.66923 5.80018 8.5 5.80018C10.3308 5.80018 11.7692 7.20267 11.7692 8.92392C11.7692 10.7089 10.3308 12.0477 8.5 12.0477ZM14.7769 5.22643C14.7769 5.60893 14.45 5.92768 14.0577 5.92768H12.2269C11.8346 5.92768 11.5077 5.60893 11.5077 5.22643V3.50518C11.5077 3.12269 11.8346 2.80394 12.2269 2.80394H14.0577C14.45 2.80394 14.7769 3.12269 14.7769 3.50518V5.22643Z" fill="white"/>
</svg>
