<svg width="40" height="39" viewBox="0 0 40 39" fill="none" xmlns="http://www.w3.org/2000/svg">
<ellipse cx="20" cy="19.5" rx="20" ry="19.5" fill="#F79595"/>
<path d="M26.5808 11.7002H14.4192C13.0462 11.7002 12 12.7202 12 14.0589V25.9164C12 27.2551 13.0462 28.2751 14.4192 28.2751H26.5808C27.9538 28.2751 29 27.2551 29 25.9164V14.0589C29 12.7202 27.9538 11.7002 26.5808 11.7002ZM20.5 24.9601C23.3115 24.9601 25.6 22.7927 25.6 20.1789C25.6 19.7327 25.5346 19.2227 25.4038 18.8402H26.8423V25.5976C26.8423 25.9164 26.5808 26.2351 26.1885 26.2351H14.8115C14.4846 26.2351 14.1577 25.9801 14.1577 25.5976V18.7764H15.6615C15.5308 19.2227 15.4654 19.6689 15.4654 20.1152C15.4 22.7927 17.6885 24.9601 20.5 24.9601ZM20.5 23.0477C18.6692 23.0477 17.2308 21.6452 17.2308 19.9239C17.2308 18.2027 18.6692 16.8002 20.5 16.8002C22.3308 16.8002 23.7692 18.2027 23.7692 19.9239C23.7692 21.7089 22.3308 23.0477 20.5 23.0477ZM26.7769 16.2264C26.7769 16.6089 26.45 16.9277 26.0577 16.9277H24.2269C23.8346 16.9277 23.5077 16.6089 23.5077 16.2264V14.5052C23.5077 14.1227 23.8346 13.8039 24.2269 13.8039H26.0577C26.45 13.8039 26.7769 14.1227 26.7769 14.5052V16.2264Z" fill="white"/>
</svg>
