<svg width="37" height="37" viewBox="0 0 37 37" fill="none" xmlns="http://www.w3.org/2000/svg">
<path d="M34.973 1H31.9657C31.9657 1 31.9655 1 31.9652 1H5.03294C5.03267 1 5.03267 1 5.0324 1H2.02539C1.45902 1 1 1.45902 1 2.02539C1 2.59149 1.45902 3.05078 2.02539 3.05078H4.00755V24.4459C4.00755 25.0123 4.46684 25.4713 5.03294 25.4713H15.6513L6.8733 34.2496C6.47276 34.6499 6.47276 35.2993 6.8733 35.6996C7.0733 35.8999 7.33579 36 7.59828 36C7.8605 36 8.12299 35.8999 8.32327 35.6996L17.4738 26.549V34.9727C17.4738 35.5391 17.9328 35.9981 18.4992 35.9981C19.0653 35.9981 19.5243 35.5391 19.5243 34.9727V26.549L28.6709 35.6953C28.8709 35.8956 29.1334 35.9957 29.3958 35.9957C29.6581 35.9957 29.9206 35.8956 30.1208 35.6953C30.5211 35.295 30.5211 34.6459 30.1208 34.2454L21.3468 25.4713H31.9652C32.5316 25.4713 32.9906 25.0123 32.9906 24.4459V3.05078H34.973C35.5391 3.05078 35.9981 2.59149 35.9981 2.02539C35.9981 1.45902 35.5391 1 34.973 1ZM30.9398 23.4208H6.05833V3.05078H30.9398V23.4208Z" fill="#F79595" stroke="white"/>
</svg>
