<svg width="35" height="35" viewBox="0 0 35 35" fill="none" xmlns="http://www.w3.org/2000/svg">
<path d="M29.1667 18.6666C30.7749 18.6666 32.0833 17.3582 32.0833 15.75C32.0833 14.1417 30.7749 12.8333 29.1667 12.8333C27.5584 12.8333 26.25 14.1417 26.25 15.75C26.25 17.3582 27.5584 18.6666 29.1667 18.6666ZM29.1667 14C30.1315 14 30.9167 14.7851 30.9167 15.75C30.9167 16.7148 30.1315 17.5 29.1667 17.5C28.2018 17.5 27.4167 16.7148 27.4167 15.75C27.4167 14.7851 28.2018 14 29.1667 14Z" fill="#F79595"/>
<path fill-rule="evenodd" clip-rule="evenodd" d="M24.5 25.0833H10.5C10.1774 25.0833 9.91667 25.3441 9.91667 25.6666C9.91667 25.9892 10.1774 26.25 10.5 26.25H24.5C24.8226 26.25 25.0833 25.9892 25.0833 25.6666C25.0833 25.3441 24.8226 25.0833 24.5 25.0833Z" fill="#F79595"/>
<path fill-rule="evenodd" clip-rule="evenodd" d="M24.5 28H10.5C10.1774 28 9.91667 28.2608 9.91667 28.5833C9.91667 28.9059 10.1774 29.1667 10.5 29.1667H24.5C24.8226 29.1667 25.0833 28.9059 25.0833 28.5833C25.0833 28.2608 24.8226 28 24.5 28Z" fill="#F79595"/>
<path d="M29.75 9.91667V0H5.25V9.91667H0V29.75H3.5V31.5H5.25V35H29.75V31.5H31.5V29.75H35V9.91667H29.75ZM6.41667 1.16667H28.5833V9.91667H6.41667V1.16667ZM5.25 11.0833H29.75H33.8333V20.4167H1.16667V11.0833H5.25ZM4.66667 30.3333V29.1667V28.5833V26.25C4.66667 25.9274 4.40592 25.6667 4.08333 25.6667C3.76075 25.6667 3.5 25.9274 3.5 26.25V28.5833H1.16667V21.5833H5.25V30.3333H4.66667ZM28.5833 33.8333H6.41667V31.5V21.5833H28.5833V31.5V33.8333ZM31.5 28.5833V26.25C31.5 25.9274 31.2393 25.6667 30.9167 25.6667C30.5941 25.6667 30.3333 25.9274 30.3333 26.25V28.5833V29.1667V30.3333H29.75V21.5833H33.8333V28.5833H31.5Z" fill="#F79595"/>
</svg>
