<svg width="42" height="28" viewBox="0 0 42 28" fill="none" xmlns="http://www.w3.org/2000/svg">
<path d="M41 6.10986H35.6609C34.4375 3.1416 31.5137 1.04688 28.1094 1.04688C24.7051 1.04688 21.7812 3.1416 20.5579 6.10986H1V22.1721H2.93994V26.813H12.979V22.1721H28.5681V26.813H38.6072V22.1721H41V6.10986ZM28.1094 3.39062C31.3186 3.39062 33.9297 6.00171 33.9297 9.21094C33.9297 12.4202 31.3186 15.0312 28.1094 15.0312C24.9001 15.0312 22.2891 12.4202 22.2891 9.21094C22.2891 6.00171 24.9001 3.39062 28.1094 3.39062ZM10.6353 24.4692H5.28369V22.1721H10.6353V24.4692ZM36.2634 24.4692H30.9119V22.1721H36.2634V24.4692ZM38.6562 19.8284H3.34375V8.45361H19.9807C19.9578 8.70288 19.9453 8.95557 19.9453 9.21094C19.9453 13.7126 23.6077 17.375 28.1094 17.375C32.6111 17.375 36.2734 13.7126 36.2734 9.21094C36.2734 8.95557 36.261 8.70288 36.238 8.45361H38.6562V19.8284Z" fill="#F79595" stroke="white"/>
<path d="M28.1094 12.9219C30.1555 12.9219 31.8203 11.2571 31.8203 9.21094C31.8203 7.16479 30.1555 5.5 28.1094 5.5C26.0632 5.5 24.3984 7.16479 24.3984 9.21094C24.3984 11.2571 26.0632 12.9219 28.1094 12.9219ZM28.1094 7.84375C28.8633 7.84375 29.4766 8.45728 29.4766 9.21094C29.4766 9.96484 28.8633 10.5781 28.1094 10.5781C27.3555 10.5781 26.7422 9.96484 26.7422 9.21094C26.7422 8.45728 27.3555 7.84375 28.1094 7.84375Z" fill="#F79595" stroke="white"/>
<path fill-rule="evenodd" clip-rule="evenodd" d="M6.39062 10.9128H17.2241V13.2566H6.39062V10.9128Z" fill="#F79595" stroke="white"/>
<path fill-rule="evenodd" clip-rule="evenodd" d="M6.39062 15.0251H17.2241V17.3689H6.39062V15.0251Z" fill="#F79595" stroke="white"/>
</svg>
