<svg width="35" height="36" viewBox="0 0 35 36" fill="none" xmlns="http://www.w3.org/2000/svg">
<path d="M30.9531 30.4719H23.625C25.4844 29.7063 26.9062 28.6125 28 27.4094C32.4844 26.7532 34.4531 23.0344 34.4531 19.6438C34.4531 17.2375 33.1406 15.2688 31.3906 14.8313C31.3906 14.5032 31.2812 14.175 31.0625 13.9563C30.8438 13.7375 30.5156 13.6282 30.1875 13.6282H2.51562C2.1875 13.6282 1.85938 13.7375 1.64062 13.9563C1.42188 14.175 1.3125 14.5032 1.3125 14.8313C1.3125 21.2844 2.51562 27.8469 9.07812 30.4719H1.64062C0.765625 30.4719 0.109375 31.1282 0.109375 32.0032C0.109375 32.7688 0.546875 33.3157 1.42188 33.425L9.07812 33.9719C9.29688 33.9719 9.40625 34.0813 9.51562 34.3C9.84375 34.9563 10.3906 35.2844 11.0469 35.2844H21C21.6562 35.2844 22.3125 34.9563 22.5312 34.3C22.6406 34.0813 22.75 33.9719 22.9688 33.9719L31.1719 33.425H31.2812C32.1562 33.2063 32.5938 32.6594 32.5938 32.0032C32.4844 31.2375 31.8281 30.4719 30.9531 30.4719ZM31.3906 16.1438C32.375 16.4719 33.25 18.0032 33.25 19.6438C33.25 21.9407 32.1562 24.7844 29.2031 25.8782C29.2031 25.7688 29.3125 25.6594 29.3125 25.6594C30.9531 22.7063 31.2812 19.2063 31.3906 16.1438ZM2.51562 14.8313H30.1875C30.0781 22.925 28.3281 30.4719 16.2969 30.4719C4.26562 30.4719 2.51562 22.925 2.51562 14.8313ZM31.0625 32.3313L22.9688 32.8782C22.3125 32.9875 21.875 33.3157 21.5469 33.8625C21.4375 34.0813 21.2188 34.1907 21.1094 34.1907H11.0469C10.8281 34.1907 10.7188 34.0813 10.6094 33.8625C10.2812 33.3157 9.73438 32.9875 9.1875 32.8782L1.64062 32.3313C1.3125 32.2219 1.3125 32.1125 1.3125 32.1125C1.3125 31.8938 1.53125 31.7844 1.64062 31.7844H31.0625C31.2812 31.7844 31.3906 32.0032 31.3906 32.1125C31.3906 32.1125 31.3906 32.2219 31.0625 32.3313Z" fill="#F79595"/>
<path fill-rule="evenodd" clip-rule="evenodd" d="M15.8594 5.42505C14.9844 6.30005 14.4375 7.28442 14.4375 8.15942C14.4375 9.03442 14.875 10.1282 15.8594 11.0032C15.9688 11.1125 16.0781 11.2219 16.2969 11.2219C16.5156 11.2219 16.625 11.1125 16.7344 11.0032C16.9531 10.7844 16.9531 10.3469 16.7344 10.1282C16.0781 9.36255 15.75 8.7063 15.75 8.05005C15.75 7.3938 16.0781 6.73755 16.7344 6.0813C17.6094 5.2063 18.1562 4.22192 18.1562 3.34692C18.1562 2.47192 17.7188 1.48755 16.7344 0.612549C16.5156 0.393799 16.0781 0.393799 15.8594 0.612549C15.6406 0.831299 15.6406 1.2688 15.8594 1.48755C16.5156 2.25317 16.8438 2.90942 16.8438 3.56567C16.8438 4.22192 16.5156 4.7688 15.8594 5.42505Z" fill="#F79595"/>
<path fill-rule="evenodd" clip-rule="evenodd" d="M21.1094 8.15942C21.1094 9.1438 21.5469 10.1282 22.5312 11.0032C22.6406 11.1125 22.75 11.2219 22.9688 11.2219C23.0781 11.2219 23.2969 11.1125 23.2969 11.0032C23.5156 10.7844 23.5156 10.3469 23.2969 10.1282C22.6406 9.36255 22.3125 8.7063 22.3125 8.05005C22.3125 7.3938 22.6406 6.73755 23.2969 6.0813C24.2812 5.2063 24.7188 4.22192 24.7188 3.34692C24.7188 2.36255 24.2812 1.37817 23.2969 0.503174C23.0781 0.284424 22.6406 0.284424 22.4219 0.503174C22.2031 0.721924 22.2031 1.15942 22.4219 1.37817C23.0781 2.1438 23.4062 2.80005 23.4062 3.4563C23.4062 4.11255 23.1875 4.7688 22.5312 5.42505C21.6562 6.30005 21.1094 7.17505 21.1094 8.15942Z" fill="#F79595"/>
<path fill-rule="evenodd" clip-rule="evenodd" d="M8.53125 8.15942C8.53125 9.1438 8.96875 10.1282 9.84375 11.0032C9.95312 11.1125 10.0625 11.2219 10.2812 11.2219C10.3906 11.2219 10.6094 11.1125 10.6094 11.0032C10.9375 10.7844 10.9375 10.4563 10.7188 10.2375C9.95312 9.47192 9.625 8.81567 9.625 8.15942C9.625 7.50317 9.95312 6.84692 10.6094 6.19067C11.5938 5.31567 12.0312 4.3313 12.0312 3.4563C12.0312 2.47192 11.5938 1.48755 10.6094 0.612549C10.5 0.284424 10.1719 0.284424 9.84375 0.612549C9.625 0.831299 9.625 1.15942 9.84375 1.37817C10.5 2.1438 10.9375 2.80005 10.9375 3.4563C10.9375 4.11255 10.5 4.7688 9.84375 5.42505C8.96875 6.30005 8.53125 7.17505 8.53125 8.15942Z" fill="#F79595"/>
<path fill-rule="evenodd" clip-rule="evenodd" d="M12.7969 27.5188C8.53125 26.7532 6.34375 24.3469 5.46875 19.5344C5.46875 19.2063 5.03125 18.9876 4.8125 19.0969C4.59375 19.2063 4.26562 19.5344 4.375 19.8626C5.35937 25.2219 7.875 27.9563 12.6875 28.7219H12.7969C13.125 28.7219 13.3437 28.5032 13.4531 28.2844C13.3437 27.8469 13.125 27.5188 12.7969 27.5188Z" fill="#F79595"/>
</svg>
