<svg width="20" height="16" viewBox="0 0 20 16" fill="none" xmlns="http://www.w3.org/2000/svg">
<path d="M19.6 2.52774C18.9 2.82023 18.1 3.01524 17.3 3.11273C18.1 2.62525 18.8 1.84527 19.1 0.967789C18.3 1.45528 17.5 1.74777 16.5 1.94277C15.8 1.16278 14.7 0.675293 13.6 0.675293C11.4 0.675293 9.59998 2.43025 9.59998 4.5752C9.59998 4.86769 9.59999 5.16018 9.69999 5.45267C6.39999 5.25768 3.39999 3.69772 1.39999 1.35777C1.09999 1.94276 0.899993 2.62524 0.899993 3.30773C0.899993 4.67269 1.6 5.84267 2.69999 6.52515C2 6.52515 1.39999 6.33016 0.899993 6.03766C0.899993 7.89012 2.29999 9.54757 4.09999 9.84006C3.79999 9.93756 3.4 9.93757 3 9.93757C2.7 9.93757 2.49999 9.93756 2.2 9.84006C2.69999 11.4 4.2 12.57 6 12.57C4.6 13.6425 2.9 14.2275 0.999999 14.2275C0.699999 14.2275 0.4 14.2275 0 14.13C1.8 15.2024 3.89999 15.8849 6.19999 15.8849C13.6 15.8849 17.6 9.93756 17.6 4.77019V4.2827C18.4 3.99021 19.1 3.30772 19.6 2.52774Z" fill="white"/>
</svg>
