<svg width="40" height="39" viewBox="0 0 40 39" fill="none" xmlns="http://www.w3.org/2000/svg">
<ellipse cx="20" cy="19.5" rx="20" ry="19.5" fill="#F79595"/>
<path d="M30.6 14.5277C29.9 14.8202 29.1 15.0152 28.3 15.1127C29.1 14.6252 29.8 13.8453 30.1 12.9678C29.3 13.4553 28.5 13.7478 27.5 13.9428C26.8 13.1628 25.7 12.6753 24.6 12.6753C22.4 12.6753 20.6 14.4303 20.6 16.5752C20.6 16.8677 20.6 17.1602 20.7 17.4527C17.4 17.2577 14.4 15.6977 12.4 13.3578C12.1 13.9428 11.9 14.6252 11.9 15.3077C11.9 16.6727 12.6 17.8427 13.7 18.5252C13 18.5252 12.4 18.3302 11.9 18.0377C11.9 19.8901 13.3 21.5476 15.1 21.8401C14.8 21.9376 14.4 21.9376 14 21.9376C13.7 21.9376 13.5 21.9376 13.2 21.8401C13.7 23.4 15.2 24.57 17 24.57C15.6 25.6425 13.9 26.2275 12 26.2275C11.7 26.2275 11.4 26.2275 11 26.13C12.8 27.2024 14.9 27.8849 17.2 27.8849C24.6 27.8849 28.6 21.9376 28.6 16.7702V16.2827C29.4 15.9902 30.1 15.3077 30.6 14.5277Z" fill="white"/>
</svg>
