<svg width="35" height="35" viewBox="0 0 35 35" fill="none" xmlns="http://www.w3.org/2000/svg">
<path d="M30.4984 27.7212C30.1859 26.0302 28.7065 24.7434 26.9266 24.7434H21.1047C19.928 24.7434 18.8909 25.3139 18.2253 26.1831L17.4615 24.2195L18.0011 24.0036C19.4445 23.4265 20.377 22.0485 20.377 20.4942C20.377 19.809 20.1908 19.1367 19.8382 18.5497L12.425 6.19582C11.8735 5.27456 10.9098 4.73981 9.87894 4.72104L9.12524 2.78376C8.46713 1.0923 6.87023 0 5.05658 0H2.18324C0.979318 0 0 0.979318 0 2.18324C0 3.38715 0.979318 4.36647 2.18324 4.36647H5.05658L5.57926 5.71128C5.24018 5.83511 4.94592 6.06059 4.77794 6.38344C4.58534 6.7537 4.56044 7.18864 4.70972 7.57883L11.4271 25.044C11.5686 25.4101 11.8436 25.6986 12.2032 25.8557C12.3908 25.9374 12.5884 25.9779 12.786 25.9779C12.9686 25.9779 13.152 25.9431 13.3268 25.8735L13.4079 25.8411L14.5549 28.7914V29.5146C13.689 30.0195 13.0994 30.9479 13.0994 32.0208C13.0994 33.6263 14.4049 34.9318 16.0104 34.9318C17.0833 34.9318 18.0117 34.3422 18.5166 33.4763H29.2439C29.5453 34.3216 30.3455 34.9318 31.2931 34.9318C32.2406 34.9318 33.0408 34.3216 33.3422 33.4763H34.2041C34.6063 33.4763 34.9318 33.1508 34.9318 32.7485C34.9318 30.1662 32.9927 28.0492 30.4984 27.7212ZM21.1046 26.1988H26.9265C27.8741 26.1988 28.6743 26.809 28.9757 27.6543H19.0554C19.3568 26.809 20.1571 26.1988 21.1046 26.1988ZM5.05658 2.911H2.18324C1.78173 2.911 1.45547 2.58481 1.45547 2.18324C1.45547 1.78166 1.78173 1.45547 2.18324 1.45547H5.05658C6.26548 1.45547 7.33008 2.18392 7.76925 3.31108L8.41453 4.96986L6.99045 5.32573L6.41257 3.8384C6.1965 3.28338 5.65137 2.911 5.05658 2.911ZM6.06714 7.05642L5.91282 6.43297L5.91302 6.4329L6.06858 7.05574C6.06858 7.05574 6.06789 7.05642 6.06714 7.05642ZM12.786 24.5209L6.06926 7.05567L9.42442 6.21704C10.1095 6.04361 10.8138 6.33855 11.177 6.94405L18.5902 19.2986C18.8069 19.6597 18.9214 20.0726 18.9214 20.494C18.9214 21.4499 18.3478 22.297 17.4609 22.6517L12.786 24.5209ZM17.2361 27.6543H15.6739L14.7587 25.3005L16.1106 24.7597L17.2361 27.6543ZM16.0104 33.4763C15.2081 33.4763 14.555 32.8232 14.555 32.0208C14.555 31.2185 15.2081 30.5654 16.0104 30.5654C16.8128 30.5654 17.4659 31.2185 17.4659 32.0208C17.4659 32.8232 16.8128 33.4763 16.0104 33.4763ZM18.9214 32.0208C18.9214 30.4153 17.6158 29.1098 16.0104 29.1098H29.8375C31.595 29.1098 33.0648 30.362 33.403 32.0208H18.9214Z" fill="#F79595"/>
<path fill-rule="evenodd" clip-rule="evenodd" d="M12.2494 15.0162C12.1052 14.6409 11.683 14.4547 11.3085 14.5983C10.9339 14.7426 10.7463 15.164 10.8906 15.5393L13.3503 21.9348C13.4618 22.2241 13.7376 22.401 14.0297 22.401C14.1164 22.401 14.2052 22.3854 14.2912 22.3527C14.6657 22.2084 14.8534 21.7869 14.7091 21.4117L12.2494 15.0162Z" fill="#F79595"/>
</svg>
