<svg width="35" height="26" viewBox="0 0 35 26" fill="none" xmlns="http://www.w3.org/2000/svg">
<g clip-path="url(#clip0)">
<path fill-rule="evenodd" clip-rule="evenodd" d="M34.7549 7.71468C30.1457 3.10486 24.0067 0.566406 17.4706 0.566406C10.9346 0.566406 4.79619 3.10422 0.186369 7.71468C-0.0624487 7.9635 -0.0624487 8.36568 0.186369 8.6145C0.435188 8.86332 0.837369 8.86332 1.08619 8.6145C5.45546 4.24459 11.2744 1.8385 17.4706 1.8385C23.6669 1.8385 29.4858 4.24459 33.8551 8.61386C33.9792 8.73795 34.1421 8.80032 34.305 8.80032C34.4679 8.80032 34.6308 8.73795 34.7549 8.61386C35.0037 8.36568 35.0037 7.96286 34.7549 7.71468Z" fill="#F79595"/>
<path fill-rule="evenodd" clip-rule="evenodd" d="M3.92691 11.4546C3.67809 11.7034 3.67809 12.1056 3.92691 12.3544C4.051 12.4785 4.21391 12.5409 4.37682 12.5409C4.53973 12.5409 4.70264 12.4785 4.82673 12.3544C11.7981 5.38243 23.1419 5.38243 30.1139 12.3544C30.3627 12.6033 30.7649 12.6033 31.0137 12.3544C31.2625 12.1056 31.2625 11.7034 31.0137 11.4546C23.5466 3.98753 11.3953 3.98625 3.92691 11.4546Z" fill="#F79595"/>
<path fill-rule="evenodd" clip-rule="evenodd" d="M17.4706 11.1415C13.7638 11.1415 10.2829 12.5816 7.66809 15.1958C7.41927 15.4446 7.41927 15.8468 7.66809 16.0956C7.91691 16.3444 8.31909 16.3444 8.56791 16.0956C10.9422 13.7219 14.1036 12.4142 17.4706 12.4142C20.8376 12.4142 23.9991 13.7219 26.3734 16.0956C26.4975 16.2197 26.6604 16.282 26.8233 16.282C26.9862 16.282 27.1491 16.2197 27.2732 16.0956C27.522 15.8468 27.522 15.4446 27.2732 15.1958C24.659 12.5816 21.1775 11.1415 17.4706 11.1415Z" fill="#F79595"/>
<path d="M17.4706 17.1284C15.1721 17.1284 13.3018 18.9987 13.3018 21.2979C13.3018 23.5971 15.1721 25.4673 17.4706 25.4673C19.7698 25.4673 21.6401 23.5971 21.6401 21.2979C21.6401 18.9987 19.7698 17.1284 17.4706 17.1284ZM17.4706 24.194C15.8734 24.194 14.5745 22.8945 14.5745 21.2972C14.5745 19.7 15.874 18.4005 17.4706 18.4005C19.0673 18.4005 20.3674 19.7 20.3674 21.2972C20.3674 22.8945 19.0679 24.194 17.4706 24.194Z" fill="#F79595"/>
</g>
<defs>
<clipPath id="clip0">
<rect width="35" height="26" fill="white"/>
</clipPath>
</defs>
</svg>
